<svg width="355" height="355" viewBox="0 0 1014.286 1014.286" xmlns="http://www.w3.org/2000/svg"><g style="display:inline" transform="translate(-1.724 .5)"><g style="display:inline;fill:green"><circle style="fill:#e6e6e6;fill-opacity:1;stroke:#e6e6e6;stroke-opacity:1" cx="511.634" cy="509.411" r="503.696"/></g><path style="opacity:1;fill:#666" d="m323.721 483.837-41.14 82.281 18.902 120.087 197.92 200.144 96.737 26.686 73.386-96.737 3.336-95.624-254.628-201.256z"/><path style="opacity:1;fill:#c18351;fill-opacity:1" d="M340.678 626.44c1.39 6.115 187.855 205.571 187.855 205.571l66.045 25.16 70.761-124.226z"/><path style="display:inline;opacity:1;fill:#7a5131;fill-opacity:1" d="M561.006 281.705c1.668-6.671 23.906-103.408 92.845-103.408 68.938 0 161.227 7.784 150.108 47.257s-39.473 57.82-54.484 56.707c-15.01-1.112-21.126-8.34-21.126-8.34s-31.134 98.961-23.906 116.752c7.227 17.79-143.437-108.968-143.437-108.968z"/><path style="display:inline;opacity:1;fill:#c18351;fill-opacity:1" d="M831.236 624.64c-1.769-2.555-102.223-102.998-102.223-102.998s-4.447-18.903-1.112-49.48c3.336-30.578-18.346-95.625-22.238-100.629-3.892-5.003-90.065-82.837-116.195-91.176-26.13-8.34-168.454 37.249-168.454 37.249l-88.397 182.91L340.4 626.16s195.696 242.397 276.866 166.787c81.17-75.61 45.589-193.472 45.589-193.472z"/><path style="display:inline;opacity:1;fill:#c18351;fill-opacity:1" d="m694.43 592.994-43.243 1.572 4.717 41.671z"/><path style="display:inline;opacity:1;fill:#666;fill-opacity:1" d="M320.524 489.674c.417 1.529 15.29 18.764 15.29 18.764l18.763-34.053s-17.513-5.698-18.347-5.003c-.834.695-15.706 20.292-15.706 20.292z"/><path style="opacity:1;fill:#f9f9f9" d="M809.403 711.447s-41.697 51.148-102.852 36.137c-61.155-15.011-211.263-68.939-225.162-102.296-13.899-33.358 39.473-32.802 49.48-30.022 10.007 2.78 72.83 47.812 102.296 22.794 29.466-25.018 72.274-62.267 44.477-105.631-27.798-43.365-70.057-115.98-70.057-115.98s7.862-24.374 21.228-13.367c13.367 11.008 102.998 117.936 102.998 117.936l106.142 104.57z"/><path style="display:inline;opacity:1;fill:#666" d="M579.74 517.194s-11.676 20.848-31.968 24.184c-20.293 3.336-48.09-6.115-59.488-23.906-11.397-17.79 3.892-40.029 13.343-46.978 9.451-6.95 30.578-10.563 39.751-2.78 9.173 7.783 31.412 17.79 35.025 30.577 3.614 12.787 3.336 18.903 3.336 18.903z"/><path style="display:inline;opacity:1;fill:#fff;stroke-width:.987104" d="M561.95 516.916s2.98-31.69-25.189-41.419c-28.168-9.729-41.982 18.347-41.982 23.35 0 5.004.812 22.239 21.397 30.022 20.585 7.783 45.775-11.953 45.775-11.953z"/><ellipse style="display:inline;opacity:1;fill:#502d16;stroke-width:1.24404" cx="512.242" cy="509.994" rx="26.616" ry="27.937" transform="rotate(-.946)"/><ellipse style="display:inline;opacity:1;fill:#000;stroke-width:1.22705" cx="518.445" cy="499.195" rx="15.567" ry="16.748"/><ellipse style="opacity:1;fill:#fff" cx="508.577" cy="497.944" rx="4.309" ry="3.961"/><ellipse style="opacity:1;fill:#fff" cx="521.85" cy="486.269" rx="2.849" ry="2.154"/><path style="display:inline;opacity:1;fill:#666" d="M680.959 445.123c.59-2.359-5.504-44.03 11.99-42.064 17.494 1.966 42.654 37.543 27.518 64.275-15.135 26.733-39.508-22.211-39.508-22.211z"/><ellipse style="display:inline;opacity:1;fill:#fff;stroke-width:.887369" cx="700.798" cy="437.692" rx="18.486" ry="24.184"/><ellipse style="display:inline;opacity:1;fill:#502d16;stroke-width:1.27491" cx="698.764" cy="437.725" rx="16.708" ry="24.373"/><ellipse style="display:inline;opacity:1;fill:#000;stroke-width:1.21611" cx="695.994" cy="436.298" rx="13.412" ry="14.733"/><ellipse style="fill:#fff" cx="689.262" cy="431.577" rx="4.309" ry="3.961"/><ellipse style="fill:#fff" cx="697.88" cy="422.125" rx="2.849" ry="2.154"/><path style="opacity:1;fill:#4d4d4d" d="M835.31 624.216c-2.503 1.111-100.907 17.79-92.567 43.92 8.339 26.13 15.288 41.697 21.682 43.365 6.393 1.668 23.072 14.733 47.256 1.668 24.184-13.065 31.69-35.582 30.856-41.141-.834-5.56 4.725-6.394 7.505-6.95 2.78-.556 11.12-8.895 5.838-21.404-5.282-12.509-20.57-19.458-20.57-19.458z"/><path style="display:inline;opacity:1;fill:#666" d="M775.104 692.768c1.667-1.39 7.227-18.625 27.241-13.621 20.015 5.004-21.96 30.855-27.241 13.62z"/><path style="display:inline;opacity:1;fill:#7a5131;fill-opacity:1" d="M445.192 313.092s-81.77-125.798-221.72-109.287C83.52 220.315 196.74 304.443 196.74 304.443s33.022 128.158 72.334 150.959c39.312 22.8 51.892 35.38 51.892 35.38s51.892-22.8 62.899-46.388c11.007-23.587 16.511-95.135 61.327-131.302z"/><path style="opacity:1;fill:#4d4d4d" d="M328.828 497.072s9.042 77.445 77.838 50.32c68.796-27.125 69.19-31.057 69.19-31.057s-12.974-53.464 20.441-63.685c33.416-10.221 22.408-7.076 22.408-7.076s-47.567-77.052 34.595-97.887c82.162-20.836-112.433-41.671-112.433-41.671s-40.884 2.359-43.636 69.19c-2.752 66.83-44.03 76.265-44.03 76.265s-35.38 7.076-24.373 45.601z"/><path style="opacity:1;fill:#f9f9f9" d="M572.79 363.75c-3.892-4.448-35.582-37.249-59.488-38.917-23.906-1.668 3.892-18.346 7.784-18.346 3.891 0 66.158 1.112 62.267 14.454-3.892 13.343-10.563 42.81-10.563 42.81z"/><path style="opacity:1;fill:#4d4d4d" d="M620.602 298.703s-61.99-1.39-11.675 23.072c50.314 24.462 75.332 59.21 75.332 59.21l27.52 14.733-5.838-41.975s-28.354-37.527-85.34-55.04z"/></g></svg>