<svg width="350" height="350" viewBox="0 0 564.516 564.516" xml:space="preserve" xmlns="http://www.w3.org/2000/svg"><g style="display:inline;opacity:1;fill:#906e49;fill-opacity:1"><path style="fill:#906e49;fill-opacity:1;stroke-width:.264583" d="M634.53 726.629s27.678 51.096 91.194 49.322c63.516-1.774 95.452-50.742 95.452-50.742l82.677-249.806-9.226-7.807s-73.806 56.065-161.451 54.646c-87.646-1.42-180.613-53.936-180.613-53.936l4.258 17.742z" transform="translate(-445.401 -214.447)"/></g><g style="display:inline"><path style="opacity:1;fill:#201e12;fill-opacity:1;stroke-width:.264583" d="M634.176 726.274s28.032 51.097 91.548 50.032c63.516-1.064 96.161-51.452 96.161-51.452l33-100.774s-8.161-4.613-11.355 4.968c-3.193 9.58-14.548 36.194-19.516 38.677-4.968 2.484-9.226 11-14.548 17.742-5.323 6.742-102.903 58.194-102.903 58.194s-9.226 5.677-15.258 4.613c-6.033-1.065-13.13-10.29-18.807-11-5.677-.71-13.129 2.129-14.193-2.484-1.065-4.613-4.259-12.42 2.483-16.323 6.742-3.903-4.612-9.58-6.742-8.16-2.129 1.418-8.16 20.225-8.516 22.709-.354 2.484-11.354-6.742-11.354-6.742z" transform="translate(-445.401 -214.447)"/></g><g style="display:inline" transform="translate(-445.401 -214.447)"><ellipse style="opacity:.5;fill:#a7b1b1;fill-opacity:.501961;stroke-width:.311628" cx="725.015" cy="414.371" rx="208.645" ry="115.677"/></g><g style="display:inline"><path style="fill:#ddc184;fill-opacity:1;stroke-width:.264583" d="M634.958 535.925s-8.782 18.818 4.516 26.596c13.298 7.779 70.506 21.328 72.262 23.586 1.756 2.258 36.883 52.44 83.302 39.142 46.418-13.298 62.225-17.564 61.221-33.622-1.003-16.058 6.022-115.167-34.625-122.945-40.647-7.779-185.923 45.414-186.676 67.243z" transform="translate(-445.401 -214.447)"/></g><g style="display:inline"><path style="fill:#b09f8e;fill-opacity:1;stroke-width:.264583" d="M606.856 631.772c.753 3.262 11.04 35.128 11.29 36.382.252 1.255 36.634 30.11 38.892 37.887 2.258 7.778 2.258 14.804 8.029 18.818 5.77 4.015 21.578 18.066 32.869 18.568 11.29.502 27.6 12.043 35.378 10.789 7.778-1.255 42.404-21.077 46.92-30.611 4.516-9.535 9.284-15.055 12.796-17.313 3.513-2.258 13.55 0 15.306-11.542 1.756-11.541-.753-28.352-10.287-27.098-9.535 1.255-46.67 29.858-61.724 30.11-15.055.25-56.956-2.259-64.735-7.528-7.778-5.269-65.738-50.684-64.734-58.462z" transform="translate(-445.401 -214.447)"/></g><g style="display:inline"><path style="fill:#2b0f0c;fill-opacity:1;stroke-width:.264583" d="M801.812 520.118s-8.782 40.145 28.604 21.076c37.385-19.069 41.65-16.56 51.185-38.89 9.535-22.332 33.288-78.097 27.965-91.935-5.323-13.839-35.306-21.202-39.298-25.726-3.992-4.524-7.718-8.339-11.976-7.895-4.258.443-10.38 5.145-13.04 3.46-2.662-1.686-19.428-13.84-27.944-8.872-8.516 4.968-11.71 3.904-19.694 0-7.983-3.903-13.66-9.048-19.87-4.967-6.21 4.08-1.242 50.92-1.242 50.92l18.536 64.942s-2.008 31.112 6.774 37.887z" transform="translate(-445.401 -214.447)"/></g><g style="display:inline;fill:#fff8e5;fill-opacity:1"><path style="fill:#fff8e5;fill-opacity:1;stroke-width:.264583" d="M637.467 282.758s-3.646-5 .257-8.549c3.903-3.548 6.564-13.129 4.968-16.854-1.597-3.726 3.016-14.549 12.951-14.726 9.936-.178 11.533 3.193 11.533 3.193s3.548-16.677 11.354-14.548c7.807 2.129 3.016 6.032 6.742 6.387 3.726.355 7.097-.355 13.484 14.548 6.387 14.904 9.758-4.613 13.484-10.645 3.726-6.032 9.658-19.024 16.056-22.411 6.398-3.388 8.782-.628 11.542 4.892 2.76 5.52 5.018 6.775 5.77 5.019.753-1.757 1.38-9.66 4.391-9.786 3.011-.125 9.786 4.266 13.675 16.184 3.89 11.918 21.83 7.025 24.59 5.645 2.76-1.38 10.286-3.513 13.172 2.886 2.885 6.398 18.442-2.384 22.958 4.641 4.516 7.026 5.645 7.026 6.775 11.668 1.129 4.642-2.76 16.309-3.262 16.936-.502.627 9.68 11.875 12.341 12.407 2.661.532 14.016 10.379 13.839 13.306-.178 2.928-.266 8.96 1.508 9.137 1.774.178 5.589 2.13 5.589 5.944s6.24 20.679 2.603 30.339c-3.639 9.66-1.004 13.298-1.004 14.678 0 1.38-4.516 2.948-4.39 4.516.125 1.568 2.885 11.166 1.693 12.671-1.192 1.506-5.646 1.694-6.712.816-1.066-.879-1.192 3.512-3.136 2.571-1.945-.94-21.955-13.172-28.102-9.66-6.147 3.513-61.638-11.399-61.638-11.399z" transform="translate(-445.401 -214.447)"/></g><g style="display:inline" transform="translate(-445.401 -214.447)"><ellipse style="fill:#883f39;fill-opacity:1;stroke-width:.264583" cx="612.496" cy="706.271" rx="13.925" ry="16.999" transform="rotate(-20)"/></g><g style="display:inline" transform="translate(-445.401 -214.447)"><ellipse style="fill:#883f39;fill-opacity:1;stroke-width:.275464" cx="957.157" cy="-224.238" rx="15.236" ry="20.528" transform="matrix(.7203 .69366 -.59676 .80242 0 0)"/></g><ellipse style="opacity:1;fill:#883f39;fill-opacity:1;stroke-width:.222418" cx="-237.527" cy="-892.115" rx="18.806" ry="23.242" transform="rotate(130 -172.702 -211.07)"/><ellipse style="opacity:1;fill:#883f39;fill-opacity:1;stroke-width:.264583" cx="891.611" cy="414.903" rx="13.306" ry="14.016" transform="translate(-445.401 -214.447)"/><ellipse style="opacity:1;fill:#883f39;fill-opacity:1;stroke-width:.289423" cx="839.628" cy="431.048" rx="17.387" ry="14.194" transform="translate(-445.401 -214.447)"/><ellipse style="opacity:1;fill:#883f39;fill-opacity:1;stroke-width:.264583" cx="811.773" cy="418.629" rx="10.823" ry="16.677" transform="translate(-445.401 -214.447)"/><g transform="translate(-445.401 -214.447)"><ellipse style="opacity:1;fill:#883f39;fill-opacity:1;stroke-width:.264583" cx="888.558" cy="-59.324" rx="13.484" ry="17.21" transform="rotate(30)"/><ellipse style="opacity:1;fill:#883f39;fill-opacity:1;stroke-width:.264583" cx="820.678" cy="-504.714" rx="16.323" ry="21.29" transform="rotate(60)"/><ellipse style="opacity:1;fill:#883f39;fill-opacity:1;stroke-width:.264583" cx="954.589" cy="105.039" rx="14.016" ry="18.984" transform="rotate(20)"/><ellipse style="opacity:1;fill:#883f39;fill-opacity:1;stroke-width:.264583" cx="822.684" cy="-550.06" rx="14.016" ry="20.226" transform="rotate(60)"/><ellipse style="opacity:1;fill:#883f39;fill-opacity:1;stroke-width:.264583" cx="969.91" cy="-199.741" rx="12.952" ry="20.935" transform="rotate(40)"/><ellipse style="opacity:1;fill:#883f39;fill-opacity:1;stroke-width:.264583" cx="180.019" cy="-976.236" rx="16.058" ry="19.32" transform="rotate(110)"/><ellipse style="opacity:1;fill:#883f39;fill-opacity:1;stroke-width:.264583" cx="949.377" cy="213.59" rx="13.75" ry="18.363" transform="rotate(20)"/></g><g style="display:inline"><path style="fill:#d2cf9b;fill-opacity:1;stroke-width:.264583" d="M580.51 309.605s13.036-29.363 42.843-28.654c29.806.71 40.984-2.661 60.145 2.13 19.161 4.79 42.226 4.612 43.468 12.596 1.242 7.984 9.048 7.63 18.097 13.661 9.048 6.033 23.064 12.597 27.677 25.371 4.613 12.775 16.5 71.5 16.5 71.5l8.871-2.129-4.968 62.097s-45.774 34.42-55.71 36.194c-9.935 1.774-83.155 31.296-108.748 31.296-25.593 0-48.174-10.79-54.949-22.833-6.775-12.043-44.238-63.818-41.4-77.657 2.84-13.839 1.42-37.968 6.743-41.161 5.322-3.194 7.451-1.774 7.451-1.774s3.735-67.596 33.98-80.637z" transform="translate(-445.401 -214.447)"/></g><g style="display:inline;fill:#cc9e47;fill-opacity:1" transform="translate(-445.401 -214.447)"><path style="fill:#cc9e47;fill-opacity:1;stroke-width:.264583" d="m754.14 466.423 20.323-126.207 17.313-2.76s4.014 6.524 2.007 12.797c-2.007 6.272-23.084 126.709-23.084 126.709l-17.814-2.76z"/><ellipse style="fill:#ffebd6;fill-opacity:1;stroke-width:.193069" cx="830.973" cy="194.717" rx="10.234" ry="7.141" transform="matrix(.9837 .17977 -.16772 .98583 0 0)"/><path style="fill:#8d7826;fill-opacity:1;stroke-width:.264583" d="m754.955 461.029-.878 6.335s2.007 4.705 7.652 4.893c5.646.188 10.727-4.39 10.727-4.39l-39.99 204.471-20.226-4.613 39.767-204.313z"/></g><g style="display:inline;fill:#cc9e47;fill-opacity:1" transform="rotate(3 4226.564 -7817.343)"><path style="fill:#cc9e47;fill-opacity:1;stroke-width:.264583" d="M767.738 433.746 788.06 307.54l17.313-2.76s4.014 6.524 2.007 12.796c-2.007 6.273-23.083 126.71-23.083 126.71l-17.815-2.76z"/><ellipse style="fill:#ffebd6;fill-opacity:1;stroke-width:.193069" cx="838.898" cy="160.125" rx="10.234" ry="7.141" transform="matrix(.9837 .17977 -.16772 .98583 0 0)"/><path style="fill:#8d7826;fill-opacity:1;stroke-width:.264583" d="m768.553 428.352-.878 6.335s2.007 4.705 7.653 4.893c5.645.188 10.726-4.391 10.726-4.391l-39.99 204.472-20.226-4.613 39.767-204.313z"/></g><g style="display:inline"><path style="fill:#2d2b1c;fill-opacity:1;stroke-width:.264583" d="M715.5 679.445s-79.288-98.356-81.797-105.382c-2.509-7.025-24.84-30.36-1.254-26.847 23.585 3.513 51.436 4.015 59.465 11.04 8.03 7.025 28.102 32.116 33.873 34.625 5.77 2.51 21.578 70.757 21.578 70.757z" transform="translate(-445.401 -214.447)"/><path style="opacity:1;fill:#2d2b1c;fill-opacity:1;stroke-width:.264583" d="M715.611 679.435s9.403 9.226 18.274 8.339c8.871-.887 29.63-4.08 29.984-14.903.355-10.823-26.968-43.113-26.968-43.113z" transform="translate(-445.401 -214.447)"/></g><g style="display:inline;opacity:.5"><path style="fill:#a7b1b0;fill-opacity:1;stroke-width:.264583" d="M634.53 726.629s27.678 51.096 91.194 49.322c63.516-1.774 95.452-50.742 95.452-50.742l82.677-249.806-9.226-7.807s-73.806 56.065-161.451 54.646c-87.646-1.42-180.613-53.936-180.613-53.936l4.258 17.742z" transform="translate(-445.401 -214.447)"/></g><path style="opacity:1;fill:#a7b1b1;fill-opacity:.501961;stroke-width:.264583" d="m552.785 468.305-9.033-5.018 12.514 20.3z" transform="translate(-445.401 -214.447)"/></svg>