<svg width="550" height="350" viewBox="0 0 5000 3181.818" xmlns="http://www.w3.org/2000/svg"><g style="display:inline;fill:#5a4432;fill-opacity:1" transform="matrix(1.0086 0 0 1.0312 -840.292 -384.217)"><ellipse style="opacity:1;fill:#5a4432;fill-opacity:1;stroke-width:1.19025" cx="3344.478" cy="2334.327" rx="490.152" ry="153.542" transform="rotate(1.993) skewX(-.013)"/></g><g style="display:inline" transform="translate(-826.874 -312.508)"><ellipse style="opacity:1;fill:#1e160e;fill-opacity:1;stroke-width:1.02109" cx="3318.759" cy="2459.011" rx="441.976" ry="113.808" transform="rotate(.959) skewX(-.083)"/></g><g style="display:inline"><path style="opacity:1;fill:#2a240e;fill-opacity:1" d="M3515.588 2124.014c.852-3.406 17.883-286.979 25.547-305.713 7.665-18.735 114.179-363.326 123.813-488.574 9.635-125.247 34.58-338.3 27.767-474.551-6.813-136.252-19.337-258.266-29.573-304.03-10.237-45.763-37.334-118.623-42.15-124.042-4.818-5.42-8.325-39.014-8.325-39.014s-7.238-12.774-7.664.426c-.426 13.199.426 29.379-13.625 56.203-14.05 26.825-57.055 166.908-87.712 391.722-30.656 224.814-57.9 442.706-57.9 606.49 0 163.786-4.818 358.882-4.818 358.882l-5.407 475.483z" transform="translate(-826.874 -312.508)"/></g><g style="display:inline;fill:#3c3c1b;fill-opacity:1"><path style="opacity:1;fill:#232405;fill-opacity:1" d="M3431.314 2224.523c2.408-4.817-6.022-86.71-3.613-162.58 2.408-75.872 6.021-316.732 6.021-316.732s-27.986-131.287-55.236-195.155c-27.25-63.867-40.876-92.82-40.876-92.82l-2.554-25.548s-1.703 0-9.368 19.586c-7.664 19.586-55.352 140.51-63.016 177.978-7.664 37.47-21.289 98.782-27.25 157.54-5.96 58.759 22.472 293.215 81.483 390.763 59.01 97.549 68.645 152.947 68.645 152.947z" transform="translate(-826.874 -312.508)"/></g><g style="display:inline"><path style="opacity:1;fill:#7b5d1d;fill-opacity:1" d="M3533.68 2583.405s134.881-246.882 149.333-298.667c14.451-51.785 31.312-89.118 45.763-102.365 14.452-13.248 25.29-33.72 40.946-72.259 15.656-38.537 28.904-86.71 24.086-99.957-4.817-13.247-9.634-13.247-9.634-13.247s-101.161 4.817-146.925 28.903c-45.763 24.086-152.946 98.753-189.075 158.968-36.129 60.215-103.57 157.764-112 189.075-8.43 31.312-4.817 231.226-4.817 231.226l9.66-2.486s21.289-146.47 62.164-232.478c40.876-86.009 93.673-177.978 118.368-208.635 24.696-30.656 73.55-107.97 134.97-126.035 61.419-18.065 119.827-28.903 119.827-28.903s13.85 16.86 6.022 28.3c-7.828 11.442-59.613 113.807-71.656 122.84-12.043 9.032-55.398 69.247-78.28 115.01-22.882 45.764-47.015 101.68-47.866 113.602-.852 11.922-15.329 86.009-19.586 90.267-4.258 4.258-83.454 122.626-83.454 122.626z" transform="translate(-826.874 -312.508)"/></g><g style="display:inline;fill:#23210b;fill-opacity:1"><path style="opacity:1;fill:#23210b;fill-opacity:1" d="M3354.238 2518.373s54.194-196.301 127.656-302.28c73.463-105.978 103.57-161.376 186.667-186.667 83.097-25.29 109.591-24.086 109.591-24.086s12.043 15.656 3.613 32.517c-8.43 16.86-59.01 121.634-77.075 130.064-18.064 8.43-101.161 163.785-110.796 196.301-9.634 32.516-12.043 89.118-31.311 120.43-19.27 31.312-74.667 114.409-74.667 114.409l-150.538 7.226-1.204-87.914z" transform="translate(-826.874 -312.508)"/></g><g style="display:inline"><path style="opacity:1;fill:#a18238;fill-opacity:1" d="M3026.788 2576.197c0-3.406-114.11-467.511-279.315-624.2-165.205-156.689-189.9-207.783-192.455-218.002-2.555-10.219-25.547-57.055-46.836-68.977-21.29-11.922-32.36-40.875-32.36-40.875s37.47 165.204 38.32 189.048c.852 23.844 22.376 188.536 59.71 251.16 37.333 62.624 65.032 127.656 195.096 275.785 130.065 148.13 213.162 232.43 213.162 232.43z" transform="translate(-826.874 -312.508)"/></g><g style="display:inline"><path style="opacity:1;fill:#363219;fill-opacity:1" d="M3014.626 2578.588c-1.205-10.84-172.629-444.355-287.59-601.896-114.963-157.54-161.012-194.75-171.851-218.836-10.839-24.086-25.29-65.032-48.172-81.892-22.882-16.86-16.86-15.054-16.86-15.054s31.914 196.903 39.741 220.99c7.828 24.085 54.796 217.376 171.613 351.053 116.818 133.678 283.613 342.022 283.613 342.022z" transform="translate(-826.874 -312.508)"/></g><g style="display:inline;fill:#967b1c;fill-opacity:1"><path style="fill:#967b1c;fill-opacity:1" d="M3430.874 2437.392s-59.185-426.211-90.693-536.063c-31.508-109.853-75.879-331.005-158.976-489.972-83.096-158.968-163.768-358.192-163.768-358.192l-46.837-55.351-.851-26.4s47.688 61.314 67.274 90.267c19.586 28.953 120.922 91.118 137.102 109.001 16.18 17.883 211.19 183.087 281.018 567.997 69.829 384.91 28.953 717.021 28.953 717.021z" transform="translate(-1166.095 -159.226)"/></g><path style="opacity:1;fill:#353712;fill-opacity:1" d="M3449.378 1645.555s6.172 2.258 6.022 3.011c-.15.753-38.387 76.323-38.387 76.323l-10.538-8.43z" transform="translate(-826.874 -312.508)"/><g style="display:inline"><path style="opacity:1;fill:#221c10;fill-opacity:1" d="M3354.642 2603.448s-3.406-340.628 19.586-409.605c22.992-68.977 19.586-54.5 19.586-54.5s-152.78 179.116-149.167 457.31c3.613 278.193 109.995 6.795 109.995 6.795z" transform="translate(-826.874 -312.508)"/></g><g style="display:inline"><path style="opacity:1;fill:#82701f;fill-opacity:1" d="M3288.604 2334.115c0-3.613 26.495-85.506 56.602-134.882 30.108-49.376 78.28-153.549 95.14-198.71s66.237-166.796 67.44-227.01c1.205-60.216 4.822-145.538-.288-157.886-5.109-12.348-6.386-11.496-6.386-11.496s-42.579 16.606-69.403 76.641c-26.825 60.036-83.88 219.28-89.84 325.725-5.962 106.447-8.516 212.893-8.516 212.893l-18.254 41.262s-21.979-127.656-21.979-176.43 4.467-173.952 42.787-263.367c38.32-89.414 76.74-154.525 103.837-181.622 27.097-27.097 64.43-42.15 64.43-42.15s13.85 14.45 17.462 45.763c3.613 31.312 2.042 143.095 2.042 160.552 0 17.457-10.219 88.563-33.21 149.025-22.993 60.461-62.165 143.24-86.853 175.756-24.688 32.516-112 158.366-115.01 205.936z" transform="translate(-826.874 -312.508)"/><path style="opacity:1;fill:#82701f;fill-opacity:1" d="M3288.755 2334.265s31.16-80.538 42.451-96.946c11.29-16.409 3.463-15.054 3.463-15.054l-25.586 53.541-10.113 23.738-6.28 16.712zM3333.333 2219.33l.075 2.22-5.59 12.636-1.81-5.961z" transform="translate(-826.874 -312.508)"/></g><g style="display:inline"><path style="opacity:1;fill:#353712;fill-opacity:1" d="M3333.39 2220.647s56.592-95.356 79.159-151.56c22.566-56.203 66.937-157.682 78.98-205.252 12.043-47.57 18.524-70.656 18.524-116.64 0-45.985 1.949-115.79-.46-127.231-2.408-11.44-7.828-16.86-7.828-16.86s-32.516 14.15-43.655 31.914c-11.14 17.763-67.702 103.235-101.765 262.479-34.063 159.243-22.956 323.15-22.956 323.15z" transform="translate(-826.874 -312.508)"/></g><g style="display:inline"><path style="opacity:1;fill:#26210e;fill-opacity:1" d="M3113.648 2588.971s-17.883-245.252-40.876-327.854c-22.992-82.603-78.62-324.422-93.071-366.572-14.452-42.15-47.438-196.316-113.008-318.09-65.571-121.775-172.018-365.323-172.018-365.323s172.87 158.392 198.416 202.673c25.547 44.282 169.707 247.105 203.427 561.428 33.72 314.322 52.99 631.656 52.99 631.656z" transform="translate(-826.874 -312.508)"/></g><g style="display:inline"><path style="opacity:1;fill:#6d5915;fill-opacity:1" d="M3123.867 2594.932c0-4.258-13.626-120.923-23.844-162.65-10.22-41.727-23.376-133.694-22.774-199.93.602-66.237 22.774-276.949 50.024-379.989 27.25-103.04 60.461-240.994 68.977-254.619 8.516-13.625 33.85-199.267 33.85-199.267l-80.686 1208.377z" transform="translate(-826.874 -312.508)"/></g><g style="display:inline"><path style="opacity:1;fill:#29240e;fill-opacity:1" d="M3128.124 2597.487S3103.43 2376.93 3096.616 2279c-6.812-97.93-3.406-207.783 8.516-252.065 11.922-44.282 42.578-168.61 47.688-192.455 5.11-23.844 28-190.43 42.45-211.505 14.452-21.075 35.043-224.498 35.043-224.498s-2.555 301.455-.852 319.338c1.703 17.883 40.476 200.816 7.96 379.052-32.516 178.237 20.473 167.398-4.817 260.13-25.29 92.73-40.946 230.02-50.58 249.29-9.635 19.268-53.9-8.8-53.9-8.8z" transform="translate(-826.874 -312.508)"/></g><g style="display:inline"><path style="opacity:1;fill:#d6c1b1;fill-opacity:1" d="M2780.991 2448.523s62.624 151.742 494.968 151.742 496.172-127.656 496.172-127.656l-186.714 770.367s-44.512 162.967-316.684 153.332c-272.172-9.634-343.226-184.258-343.226-184.258z" transform="translate(-826.874 -312.508)"/></g></svg>