<svg width="400" height="350" viewBox="0 0 3636.364 3181.818" xmlns="http://www.w3.org/2000/svg"><g style="display:inline;fill:#5a4432;fill-opacity:1" transform="matrix(1.0086 0 0 1.0312 -840.292 -384.217)"><ellipse style="opacity:1;fill:#5a4432;fill-opacity:1;stroke-width:1.19025" cx="2684.264" cy="2342.283" rx="490.152" ry="153.542" transform="rotate(1.993) skewX(-.013)"/></g><g style="display:inline" transform="translate(-826.874 -312.508)"><ellipse style="opacity:1;fill:#1e160e;fill-opacity:1;stroke-width:1.02109" cx="2652.814" cy="2454.675" rx="441.976" ry="113.808" transform="rotate(.959) skewX(-.083)"/></g><g style="display:inline"><path style="opacity:1;fill:#2a240e;fill-opacity:1" d="M2849.816 2108.53c.852-3.405 17.883-286.978 25.547-305.712 7.664-18.735 114.178-363.326 123.813-488.574 9.634-125.247 34.579-338.3 27.766-474.551-6.812-136.252-19.336-258.266-29.573-304.03-10.236-45.763-37.333-118.623-42.15-124.042-4.818-5.42-8.324-39.014-8.324-39.014s-7.239-12.774-7.664.425c-.426 13.2.425 29.38-13.625 56.204-14.051 26.824-57.056 166.908-87.712 391.722-30.657 224.814-57.901 442.706-57.901 606.49 0 163.786-4.817 358.882-4.817 358.882l-5.408 475.483z" transform="translate(-826.874 -312.508)"/></g><g style="display:inline;fill:#3c3c1b;fill-opacity:1"><path style="opacity:1;fill:#232405;fill-opacity:1" d="M2765.541 2209.04c2.409-4.817-6.021-86.71-3.613-162.58 2.409-75.872 6.022-316.732 6.022-316.732s-27.987-131.287-55.237-195.155c-27.25-63.868-40.875-92.821-40.875-92.821l-2.555-25.547s-1.703 0-9.367 19.586c-7.664 19.586-55.352 140.509-63.016 177.978-7.664 37.47-21.29 98.782-27.25 157.54-5.961 58.759 22.472 293.215 81.483 390.763 59.01 97.549 68.645 152.947 68.645 152.947z" transform="translate(-826.874 -312.508)"/></g><g style="display:inline"><path style="opacity:1;fill:#7b5d1d;fill-opacity:1" d="M2867.907 2567.922s134.882-246.882 149.333-298.667c14.452-51.785 31.312-89.118 45.764-102.366 14.451-13.247 25.29-33.72 40.946-72.258 15.656-38.537 28.903-86.71 24.086-99.957s-9.635-13.247-9.635-13.247-101.16 4.817-146.924 28.903c-45.764 24.086-152.946 98.753-189.075 158.968-36.13 60.215-103.57 157.764-112 189.075-8.43 31.312-4.818 231.226-4.818 231.226l9.66-2.486s21.29-146.47 62.165-232.478c40.875-86.009 93.672-177.979 118.368-208.635 24.696-30.657 73.55-107.97 134.969-126.035 61.419-18.065 119.828-28.903 119.828-28.903s13.849 16.86 6.021 28.3c-7.828 11.441-59.613 113.807-71.656 122.84-12.043 9.032-55.398 69.247-78.28 115.01-22.881 45.763-47.014 101.68-47.866 113.602-.852 11.922-15.328 86.009-19.586 90.267-4.258 4.257-83.454 122.626-83.454 122.626z" transform="translate(-826.874 -312.508)"/></g><g style="display:inline;fill:#23210b;fill-opacity:1"><path style="opacity:1;fill:#23210b;fill-opacity:1" d="M2688.466 2502.89s54.194-196.302 127.656-302.28c73.462-105.979 103.57-161.376 186.667-186.667 83.096-25.29 109.591-24.086 109.591-24.086s12.043 15.656 3.613 32.516-59.01 121.635-77.075 130.065c-18.065 8.43-101.162 163.785-110.796 196.301-9.635 32.516-12.043 89.118-31.312 120.43-19.269 31.312-74.667 114.409-74.667 114.409l-150.537 7.226-1.205-87.914z" transform="translate(-826.874 -312.508)"/></g><g style="display:inline"><path style="opacity:1;fill:#a18238;fill-opacity:1" d="M2361.015 2560.714c0-3.406-114.11-467.511-279.315-624.2-165.204-156.689-189.9-207.783-192.454-218.002-2.555-10.219-25.548-57.055-46.837-68.977-21.289-11.922-32.36-40.875-32.36-40.875s37.47 165.204 38.321 189.048c.852 23.844 22.376 188.536 59.709 251.16 37.333 62.624 65.032 127.656 195.097 275.785 130.064 148.129 213.161 232.43 213.161 232.43z" transform="translate(-826.874 -312.508)"/></g><g style="display:inline"><path style="opacity:1;fill:#363219;fill-opacity:1" d="M2348.853 2563.104c-1.204-10.838-172.629-444.354-287.59-601.895-114.962-157.54-161.012-194.75-171.85-218.836-10.84-24.086-25.291-65.032-48.173-81.892s-16.86-15.054-16.86-15.054 31.914 196.903 39.742 220.99c7.828 24.085 54.796 217.376 171.613 351.053 116.817 133.678 283.613 342.022 283.613 342.022z" transform="translate(-826.874 -312.508)"/></g><g style="display:inline;fill:#967b1c;fill-opacity:1"><path style="fill:#967b1c;fill-opacity:1" d="M2765.101 2421.909s-59.184-426.211-90.692-536.063c-31.508-109.853-75.88-331.005-158.976-489.972-83.097-158.968-163.769-358.192-163.769-358.192l-46.836-55.352-.852-26.398s47.688 61.313 67.274 90.266c19.586 28.953 120.923 91.118 137.103 109.001 16.18 17.883 211.189 183.087 281.018 567.997 69.828 384.91 28.953 717.021 28.953 717.021z" transform="translate(-1166.095 -159.226)"/></g><path style="opacity:1;fill:#353712;fill-opacity:1" d="M2783.606 1630.072s6.172 2.258 6.021 3.011c-.15.753-38.387 76.323-38.387 76.323l-10.537-8.43z" transform="translate(-826.874 -312.508)"/><g style="display:inline"><path style="opacity:1;fill:#221c10;fill-opacity:1" d="M2688.87 2587.965s-3.407-340.628 19.585-409.605c22.993-68.977 19.586-54.5 19.586-54.5s-152.78 179.116-149.166 457.31c3.612 278.193 109.994 6.795 109.994 6.795z" transform="translate(-826.874 -312.508)"/></g><g style="display:inline"><path style="opacity:1;fill:#82701f;fill-opacity:1" d="M2622.832 2318.631c0-3.612 26.494-85.505 56.602-134.881 30.107-49.377 78.28-153.549 95.14-198.71s66.236-166.796 67.44-227.01c1.205-60.216 4.821-145.538-.288-157.886-5.11-12.348-6.387-11.496-6.387-11.496s-42.578 16.605-69.403 76.641c-26.824 60.036-83.88 219.28-89.84 325.725-5.961 106.447-8.516 212.893-8.516 212.893l-18.254 41.262s-21.978-127.656-21.978-176.43 4.466-173.952 42.787-263.367c38.32-89.415 76.74-154.525 103.836-181.622 27.097-27.097 64.43-42.15 64.43-42.15s13.85 14.45 17.463 45.763c3.613 31.311 2.042 143.095 2.042 160.552 0 17.457-10.219 88.563-33.211 149.025-22.993 60.461-62.165 143.24-86.853 175.756-24.688 32.516-112 158.366-115.01 205.935z" transform="translate(-826.874 -312.508)"/><path style="opacity:1;fill:#82701f;fill-opacity:1" d="M2622.982 2318.782s31.161-80.538 42.452-96.946c11.29-16.409 3.462-15.054 3.462-15.054l-25.586 53.541-10.112 23.738-6.28 16.712zM2667.56 2203.847l.075 2.22-5.59 12.636-1.81-5.961z" transform="translate(-826.874 -312.508)"/></g><g style="display:inline"><path style="opacity:1;fill:#353712;fill-opacity:1" d="M2667.617 2205.164s56.592-95.356 79.159-151.56c22.567-56.203 66.937-157.682 78.98-205.252 12.043-47.57 18.525-70.656 18.525-116.64 0-45.985 1.949-115.79-.46-127.231-2.409-11.441-7.828-16.86-7.828-16.86s-32.516 14.15-43.656 31.914c-11.14 17.763-67.702 103.235-101.764 262.478-34.063 159.244-22.956 323.15-22.956 323.15z" transform="translate(-826.874 -312.508)"/></g><g style="display:inline"><path style="opacity:1;fill:#26210e;fill-opacity:1" d="M2447.875 2573.488s-17.883-245.252-40.875-327.854c-22.992-82.603-78.62-324.422-93.072-366.572-14.451-42.151-47.437-196.316-113.008-318.09-65.57-121.775-172.017-365.323-172.017-365.323s172.869 158.391 198.416 202.673c25.547 44.282 169.706 247.105 203.427 561.428 33.72 314.322 52.989 631.656 52.989 631.656z" transform="translate(-826.874 -312.508)"/></g><g style="display:inline"><path style="opacity:1;fill:#6d5915;fill-opacity:1" d="M2458.094 2579.449c0-4.258-13.625-120.923-23.844-162.65-10.219-41.727-23.375-133.694-22.773-199.931.602-66.237 22.773-276.948 50.023-379.988 27.25-103.04 60.462-240.994 68.977-254.619 8.516-13.625 33.85-199.267 33.85-199.267l-80.686 1208.377z" transform="translate(-826.874 -312.508)"/></g><g style="display:inline"><path style="opacity:1;fill:#29240e;fill-opacity:1" d="M2462.352 2582.004s-24.696-220.557-31.508-318.487c-6.813-97.93-3.406-207.783 8.516-252.065 11.921-44.282 42.578-168.61 47.687-192.455 5.11-23.844 28-190.43 42.451-211.505 14.452-21.076 35.042-224.498 35.042-224.498s-2.555 301.455-.851 319.338c1.703 17.883 40.476 200.816 7.96 379.052-32.516 178.237 20.473 167.398-4.817 260.13-25.29 92.73-40.947 230.02-50.581 249.29-9.634 19.268-53.9-8.8-53.9-8.8z" transform="translate(-826.874 -312.508)"/></g><g style="display:inline"><path style="opacity:1;fill:#d6c1b1;fill-opacity:1" d="M2115.219 2433.04s62.623 151.742 494.967 151.742 496.172-127.656 496.172-127.656l-186.713 770.367s-44.512 162.966-316.684 153.332c-272.172-9.634-343.226-184.258-343.226-184.258z" transform="translate(-826.874 -312.508)"/></g></svg>