<svg width="300" height="300" viewBox="0 0 3000 3000" xmlns="http://www.w3.org/2000/svg"><g style="display:inline;fill:#000;fill-opacity:1" transform="translate(45.255 67.882)"><ellipse style="fill:#666;fill-opacity:1;stroke:#e6e6e6;stroke-width:7.52946" cx="1421.992" cy="1448.862" rx="1206.852" ry="1220.994"/></g><g style="display:inline;opacity:.992248" transform="translate(45.255 67.882)"><path style="display:inline;opacity:1;fill:#cc964f;fill-opacity:1;stroke-width:.752946" d="M944.98 952.892c17.217 11.36 176.663 100.727 218.583 90.124 41.92-10.603 70.366-27.265 82.343-37.867 11.978-10.603 26.95-43.926 126.51-4.545 99.56 39.382 331.175 104.451 331.175 104.451l139.74 373.796s25.408 93.181 30.701 96.394c5.293 3.213 218.08 292.396 218.08 292.396l-81.515 173.51-254.074 170.297-287.951 96.394-81.516-31.06-236.077-553.732-119.913-121.87-119.772-81.794S710.49 1316.417 710.302 1315.47c-.187-.947 234.678-362.58 234.678-362.58z"/><path style="display:inline;opacity:1;fill:#cc964f;fill-opacity:1;stroke-width:.752946" d="M1791.616 1183.125c1.872 2.84 19.276 35.216 19.276 35.216l-57.453 29.158-32.75-61.345 5.053-31.62zM1326.752 986.215l321.887 88.61-.749 35.595-336.11-99.213z"/><path style="display:inline;opacity:1;fill:#fff;stroke-width:.752946" d="M761.58 871.856s137.737 36.352 189.389 81.793c51.651 45.44 175.166 103 193.131 107.543 17.966 4.544 103.304 6.816 103.304 6.816s-157.95 33.323-202.864 65.132c-44.914 31.808-64.377 69.676-64.377 69.676l-245.532 102.999s-112.286-72.706-89.829-287.792c22.457-215.086 89.829-81.793 89.829-81.793z"/><path style="display:inline;opacity:1;fill:#fff;stroke-width:.752946" d="m734.668 1305.743-24.084 10.041s-71.988-120.76-63.519-197.876c8.47-77.115 87.603 187.835 87.603 187.835z"/><path style="display:inline;opacity:1;fill:#333;stroke-width:.752946" d="m670.067 900.209-1.03 4.307 12.539 17.845 5.287-6.91-15.44-15.81z"/><path style="opacity:1;fill:#333;stroke-width:.752946" d="m682.26 993.293-38.47 25.321 2.782-66.118 21.784-53.457 20.393 32.356z"/><path style="display:inline;opacity:1;fill:#1a1a1a;stroke-width:.752946" d="M779.343 985.466s-61.18 15.005-88.527 8.91c-27.345-6.096-10.196-61.43-10.196-61.43s2.78-19.694-1.854-23.445c-4.635-3.752-10.66-9.848-10.66-9.848s17.149-43.14 41.25-41.265c24.102 1.876 50.057 11.254 50.057 11.254s31.517 15.944 19.93 115.824z"/><path style="display:inline;opacity:1;fill:#666;stroke-width:.752946" d="M1210.959 1145.313s28.736 16.412 50.057 7.972c21.32-8.44 51.91-29.542 63.962 23.446 12.05 52.988-14.832 102.694-14.832 102.694s-149.244-37.983-99.187-134.112z"/><path style="display:inline;opacity:1;fill:#502d16;stroke-width:.752946" d="M1302.456 1253.642s-39.328.663-62.925-19.232c-23.597-19.895-11.143-60.679-11.143-60.679s111.993-74.86 74.068 79.91z"/><ellipse style="opacity:1;fill:#000;stroke-width:.711217" cx="919.491" cy="1485.073" rx="40.017" ry="32.962" transform="matrix(.96516 -.26165 .25602 .96667 0 0)"/><ellipse style="opacity:1;fill:#fff;stroke-width:.752946" cx="1280.528" cy="1172.522" rx="14.41" ry="13.254"/><path style="display:inline;opacity:1;fill:#b67e35;fill-opacity:1;stroke-width:.752946" d="M1637.41 1087.7s8.235 60.587 41.92 71.947c33.686 11.36 113.784 24.992 113.784 24.992s57.64-112.844 77.851-170.402c20.212-57.558 109.292-123.447 109.292-123.447s35.931-56.801-51.652-21.206-188.64 121.932-188.64 121.932-57.64 28.78-102.555 96.183zM1724.245 1260.374s-104.8 71.19-101.806 160.557c2.994 89.367-8.983 133.293 41.92 160.557 50.903 27.265 125.76 39.382 137.737 34.838 11.977-4.544 89.83-78.764 91.326-109.058 1.497-30.293 91.326-93.91 91.326-93.91s232.058-75.735 209.6-184.793c-22.456-109.057 67.372-140.866 67.372-140.866s37.429-56.043-47.908-40.896c-85.338 15.146-339.853 118.145-339.853 118.145z"/><path style="display:inline;opacity:1;fill:#f4e3d7;stroke-width:.752946" d="M1636.367 1085.776s117.51 22.492 145.563-24.098c28.054-46.59 132.33-151.018 132.33-151.018s-20.643-11.781-65.635 4.82c-44.993 16.601-121.215 81.935-133.39 88.897-12.174 6.962-53.46 25.705-66.694 54.088"/><path style="opacity:1;fill:#f4e3d7;stroke-width:.752946" d="M1824.276 1197.165s-178.91 61.05-200.084 173.51c-21.172 112.46 14.821 188.505 85.75 166.013 70.93-22.492 109.04-61.05 128.096-89.968 19.056-28.919 57.167-61.05 71.988-63.192 14.82-2.142 140.8-16.066 161.972-31.06 21.173-14.995 91.043-52.482 87.867-70.69-3.175-18.208-29.641-54.623-17.996-84.613 11.645-29.989 63.518-137.094 63.518-137.094l-114.333 24.634s-110.1-25.705-266.778 112.46z"/></g></svg>